<svg xmlns="http://www.w3.org/2000/svg" xmlns:xlink="http://www.w3.org/1999/xlink" preserveAspectRatio="xMidYMid meet" viewBox="7.27 122.48 649.01 123.01"><path fill="#ffffff" d="M 300.324219 170.285156 C 300.324219 185.265625 289.125 198.859375 268.113281 198.859375 C 265.46875 198.859375 260.4375 198.859375 256.667969 198.480469 L 256.667969 225.671875 C 256.667969 228.1875 254.53125 230.324219 252.015625 230.324219 L 245.847656 230.324219 C 243.332031 230.324219 241.195312 228.1875 241.195312 225.671875 L 241.195312 146.875 C 241.195312 144.355469 243.210938 142.21875 245.847656 142.21875 C 252.132812 142.09375 261.445312 141.964844 266.230469 141.964844 C 292.148438 141.957031 300.324219 155.808594 300.324219 170.285156 Z M 256.667969 183.753906 C 260.320312 184.136719 264.089844 184.382812 267.613281 184.382812 C 276.796875 184.382812 283.972656 179.972656 283.972656 170.160156 C 283.972656 160.96875 278.3125 156.433594 267.742188 156.433594 C 264.597656 156.433594 260.820312 156.5625 256.667969 156.6875 Z M 256.667969 183.753906 " fill-opacity="1" fill-rule="nonzero"></path><path fill="#ffffff" d="M 452.125 158.417969 C 452.125 163.417969 448.542969 166.242188 444.957031 166.242188 C 440.722656 166.242188 437.140625 163.417969 437.140625 158.417969 C 437.140625 153.960938 440.722656 151.136719 444.957031 151.136719 C 448.535156 151.136719 452.125 153.960938 452.125 158.417969 Z M 445.28125 172.320312 C 448.933594 172.320312 451.921875 175.3125 451.921875 178.964844 L 451.921875 223.679688 C 451.921875 227.332031 448.933594 230.324219 445.28125 230.324219 L 443.746094 230.324219 C 440.097656 230.324219 437.105469 227.332031 437.105469 223.679688 L 437.105469 178.964844 C 437.105469 175.3125 440.097656 172.320312 443.746094 172.320312 Z M 445.28125 172.320312 " fill-opacity="1" fill-rule="nonzero"></path><path fill="#ffffff" d="M 656.277344 161.894531 L 656.277344 224.164062 C 656.277344 227.5625 653.515625 230.324219 650.121094 230.324219 C 647.144531 230.324219 644.707031 228.308594 644.070312 225.542969 C 639.605469 228.628906 634.191406 230.324219 628.457031 230.324219 C 620.59375 230.324219 613.484375 227.238281 608.273438 221.507812 C 603.285156 216.195312 600.625 208.863281 600.625 201.105469 C 600.625 193.242188 603.285156 185.90625 608.273438 180.601562 C 613.476562 174.863281 620.59375 171.777344 628.457031 171.777344 C 634.082031 171.777344 639.394531 173.371094 643.960938 176.457031 L 643.960938 161.902344 C 643.960938 158.503906 646.722656 155.738281 650.121094 155.738281 C 653.515625 155.730469 656.277344 158.496094 656.277344 161.894531 Z M 643.960938 201.105469 C 643.960938 191.222656 637.378906 184.101562 628.457031 184.101562 C 619.425781 184.101562 612.949219 191.222656 612.949219 201.105469 C 612.949219 210.878906 619.433594 218 628.457031 218 C 637.378906 218 643.960938 210.878906 643.960938 201.105469 Z M 643.960938 201.105469 " fill-opacity="1" fill-rule="nonzero"></path><path fill="#ffffff" d="M 352.390625 172.683594 C 349.457031 172.683594 347.085938 173.9375 346.492188 176.472656 C 341.992188 173.640625 336.070312 171.777344 330.726562 171.777344 C 322.863281 171.777344 315.753906 174.863281 310.542969 180.601562 C 305.554688 185.917969 302.894531 193.25 302.894531 201.105469 C 302.894531 208.863281 305.554688 216.195312 310.542969 221.507812 C 315.746094 227.25 322.863281 230.324219 330.726562 230.324219 C 336.460938 230.324219 341.875 228.621094 346.339844 225.542969 C 346.976562 228.308594 349.414062 230.324219 352.390625 230.324219 C 355.785156 230.324219 358.546875 227.5625 358.546875 224.164062 L 358.546875 178.847656 C 358.546875 175.449219 355.785156 172.683594 352.390625 172.683594 Z M 330.726562 218 C 321.691406 218 315.21875 210.878906 315.21875 201.105469 C 315.21875 191.222656 321.703125 184.101562 330.726562 184.101562 C 339.644531 184.101562 346.230469 191.222656 346.230469 201.105469 C 346.230469 210.878906 339.644531 218 330.726562 218 Z M 330.726562 218 " fill-opacity="1" fill-rule="nonzero"></path><path fill="#ffffff" d="M 569.800781 230.324219 C 561.988281 230.324219 554.921875 226.941406 549.753906 221.246094 C 544.796875 215.964844 542.15625 208.683594 542.15625 200.980469 C 542.15625 184.296875 553.863281 171.835938 569.277344 171.835938 C 584.789062 171.835938 596.074219 184.085938 596.074219 200.980469 C 596.074219 204.363281 593.328125 207.097656 589.847656 207.097656 L 555.339844 207.097656 C 557.449219 213.542969 562.9375 218.078125 569.792969 218.078125 C 575.171875 218.078125 579.5 216.59375 581.925781 212.160156 C 583.722656 209.203125 587.515625 208.363281 590.363281 210.050781 C 593.320312 211.847656 594.160156 215.644531 592.472656 218.492188 C 587.746094 227.054688 579.511719 230.324219 569.800781 230.324219 Z M 555.246094 194.75 L 583 194.75 C 580.890625 187.46875 575.085938 184.085938 569.285156 184.085938 C 563.582031 184.085938 557.457031 187.460938 555.246094 194.75 Z M 555.246094 194.75 " fill-opacity="1" fill-rule="nonzero"></path><path fill="#ffffff" d="M 537.613281 196.722656 L 537.613281 224.078125 C 537.613281 227.527344 534.816406 230.324219 531.257812 230.324219 C 527.8125 230.324219 525.015625 227.527344 525.015625 224.078125 L 525.015625 196.722656 C 525.015625 188.867188 521.03125 183.484375 514.898438 183.484375 C 506.933594 183.484375 503.386719 190.375 503.386719 196.722656 L 503.386719 197.15625 C 503.386719 197.265625 503.386719 197.480469 503.386719 197.589844 L 503.386719 224.078125 C 503.386719 227.527344 500.589844 230.324219 497.140625 230.324219 C 493.589844 230.324219 490.785156 227.527344 490.785156 224.078125 L 490.785156 196.722656 C 490.785156 188.867188 486.804688 183.484375 480.671875 183.484375 C 472.707031 183.484375 469.15625 190.375 469.15625 196.722656 L 469.15625 197.15625 C 469.15625 197.265625 469.15625 197.480469 469.15625 197.589844 L 469.15625 224.078125 C 469.15625 227.527344 466.359375 230.324219 462.910156 230.324219 C 459.464844 230.324219 456.667969 227.527344 456.667969 224.078125 L 456.667969 177.238281 C 456.667969 173.785156 459.464844 170.988281 462.910156 170.988281 C 465.285156 170.988281 467.4375 172.386719 468.402344 174.328125 C 471.953125 172.175781 476.15625 170.988281 480.671875 170.988281 C 487.457031 170.988281 493.371094 173.898438 497.351562 178.746094 C 501.65625 173.898438 507.902344 170.988281 514.898438 170.988281 C 528.03125 170.988281 537.613281 181.863281 537.613281 196.722656 Z M 537.613281 196.722656 " fill-opacity="1" fill-rule="nonzero"></path><path fill="#ffffff" d="M 432.5625 178.625 C 432.5625 182.066406 429.769531 184.855469 426.226562 184.855469 C 419.355469 184.855469 414.195312 190.441406 414.195312 198.082031 L 414.195312 224.085938 C 414.195312 227.527344 411.398438 230.316406 407.96875 230.316406 C 404.535156 230.316406 401.742188 227.519531 401.742188 224.085938 L 401.742188 177.339844 C 401.742188 173.898438 404.535156 171.109375 407.96875 171.109375 C 410.867188 171.109375 413.230469 173.039062 413.984375 175.726562 C 417.636719 173.574219 421.820312 172.394531 426.226562 172.394531 C 429.769531 172.394531 432.5625 175.195312 432.5625 178.625 Z M 432.5625 178.625 " fill-opacity="1" fill-rule="nonzero"></path><path fill="#ffffff" d="M 395.707031 224.933594 C 392.75 228.316406 388.414062 230.324219 383.871094 230.324219 C 375.316406 230.324219 368.34375 223.347656 368.34375 214.789062 L 368.34375 184.339844 C 365.171875 184.230469 362.53125 181.484375 362.53125 178.203125 C 362.53125 174.921875 365.171875 172.175781 368.34375 172.074219 L 368.34375 165.308594 C 368.34375 161.929688 371.085938 159.179688 374.578125 159.179688 C 377.957031 159.179688 380.703125 161.929688 380.703125 165.308594 L 380.703125 172.074219 L 388.523438 172.074219 C 391.90625 172.074219 394.648438 174.820312 394.648438 178.203125 C 394.648438 181.585938 391.90625 184.339844 388.523438 184.339844 L 380.703125 184.339844 L 380.703125 214.789062 C 380.703125 216.585938 382.078125 218.066406 383.871094 218.066406 C 385.144531 218.066406 385.992188 217.332031 386.304688 216.90625 C 388.523438 214.371094 392.429688 214.050781 394.972656 216.269531 C 397.613281 218.382812 397.929688 222.289062 395.707031 224.933594 Z M 395.707031 224.933594 " fill-opacity="1" fill-rule="nonzero"></path><path fill="#81286b" d="M 209.1875 203.632812 C 208.621094 199.257812 207.621094 194.824219 206.203125 190.410156 C 200.300781 171.753906 188.277344 157.207031 174.847656 152.476562 C 172.867188 151.738281 170.910156 151.230469 169.019531 151 C 168.433594 150.910156 167.882812 150.847656 167.324219 150.816406 C 166.585938 150.753906 165.800781 150.722656 164.96875 150.753906 L 155.785156 134.855469 C 151.320312 127.097656 143.304688 122.476562 134.351562 122.476562 C 125.488281 122.539062 117.132812 127.496094 112.59375 135.421875 L 100.035156 157.136719 L 95.851562 164.402344 L 95.835938 164.421875 L 85.804688 147.007812 C 81.3125 139.234375 73.261719 134.617188 64.25 134.617188 C 55.480469 134.675781 47.183594 139.632812 42.585938 147.558594 L 10.625 202.960938 C 6.121094 210.769531 6.160156 220.09375 10.703125 227.839844 C 15.039062 235.277344 23.226562 239.9375 32.199219 240.105469 C 34.890625 243.386719 38.933594 245.328125 43.1875 245.328125 C 51.03125 245.328125 57.421875 238.9375 57.421875 231.089844 C 57.421875 223.222656 51.03125 216.847656 43.1875 216.847656 C 38.585938 216.847656 34.246094 219.109375 31.585938 222.847656 C 29.046875 222.695312 26.851562 221.355469 25.554688 219.136719 C 24.199219 216.761719 24.183594 213.929688 25.539062 211.59375 L 57.835938 155.636719 C 59.234375 153.28125 61.664062 151.882812 64.359375 151.882812 C 65.375 151.882812 68.867188 152.144531 70.867188 155.636719 L 79.5 170.617188 L 85.871094 181.667969 L 81.683594 188.933594 L 73.59375 202.972656 C 69.410156 210.195312 69.144531 218.949219 72.875 226.402344 C 77.058594 234.742188 86.074219 240.132812 95.859375 240.132812 L 96.648438 240.132812 C 105 240.132812 112.710938 235.980469 117.277344 229.035156 C 122.429688 221.203125 122.574219 210.703125 117.675781 202.269531 L 110.90625 190.519531 L 105.796875 181.667969 L 110 174.40625 L 127.835938 143.507812 C 129.722656 140.226562 132.714844 139.734375 134.359375 139.734375 C 137.054688 139.734375 139.511719 141.136719 140.867188 143.492188 L 148.789062 157.242188 C 148.429688 157.5625 148.109375 157.882812 147.804688 158.207031 C 147.558594 158.410156 147.328125 158.640625 147.144531 158.867188 C 142.746094 163.582031 139.679688 170.167969 138.246094 177.941406 C 136.339844 188.101562 137.265625 199.917969 140.867188 211.195312 C 142.484375 216.289062 144.558594 221.019531 146.992188 225.359375 C 145.957031 227.300781 145.347656 229.484375 145.347656 231.851562 C 145.347656 239.378906 151.457031 245.488281 158.996094 245.488281 C 166.535156 245.488281 172.644531 239.378906 172.644531 231.851562 C 172.644531 224.738281 167.214844 218.90625 160.277344 218.246094 C 158.257812 214.675781 156.566406 210.796875 155.226562 206.589844 C 152.363281 197.664062 151.589844 188.484375 153.058594 180.730469 C 153.980469 175.769531 155.75 171.753906 158.183594 169.125 C 159.488281 167.726562 160.9375 166.769531 162.503906 166.257812 C 163.875 165.828125 165.292969 165.734375 166.953125 165.953125 C 167.800781 166.066406 168.6875 166.292969 169.6875 166.675781 C 178.6875 169.84375 187.378906 180.957031 191.828125 195.011719 C 193.03125 198.800781 193.84375 202.574219 194.277344 206.292969 C 191.675781 208.785156 190.046875 212.277344 190.046875 216.160156 C 190.046875 223.6875 196.15625 229.800781 203.695312 229.800781 C 211.238281 229.800781 217.347656 223.6875 217.347656 216.160156 C 217.371094 210.53125 214 205.742188 209.1875 203.632812 Z M 103.171875 219.101562 C 102.324219 220.5 100.339844 222.855469 96.664062 222.855469 L 95.0625 222.855469 C 92.328125 222.855469 89.894531 221.441406 88.554688 219.101562 C 87.183594 216.6875 87.183594 213.929688 88.539062 211.574219 L 91.664062 206.160156 L 95.851562 198.894531 L 99.148438 204.605469 L 103.164062 211.550781 C 105.113281 214.949219 103.808594 217.964844 103.171875 219.101562 Z M 103.171875 219.101562 " fill-opacity="1" fill-rule="nonzero"></path><path fill="#591d4c" d="M 95.851562 198.894531 L 91.664062 206.160156 L 81.695312 188.917969 L 85.878906 181.652344 Z M 95.851562 198.894531 " fill-opacity="1" fill-rule="nonzero"></path><path fill="#591d4c" d="M 110.007812 174.386719 L 105.804688 181.652344 L 95.851562 164.394531 L 100.035156 157.128906 Z M 110.007812 174.386719 " fill-opacity="1" fill-rule="nonzero"></path></svg>