<svg xmlns="http://www.w3.org/2000/svg" xmlns:xlink="http://www.w3.org/1999/xlink" id="Warstwa_1" x="0px" y="0px" style="enable-background:new 0 0 1000 1000;" xml:space="preserve" viewBox="224.92 455.32 550.17 89.35"><style type="text/css">	.st0{fill:#00A4FF;}	.st1{fill:#2D8BE0;}	.st2{fill:#FFFFFF;}</style><g>	<g>		<g>			<path class="st0" d="M362.07,510.43c-0.38-2.97-1.06-5.98-2.02-8.98c-4.01-12.67-12.18-22.54-21.3-25.76     c-1.34-0.5-2.68-0.85-3.96-1c-0.4-0.06-0.77-0.1-1.15-0.13c-0.5-0.04-1.04-0.06-1.6-0.04l-6.24-10.8     c-3.04-5.26-8.48-8.4-14.56-8.4c-6.02,0.04-11.69,3.41-14.78,8.79l-8.53,14.74l6.78,11.72l12.12-20.98     c1.28-2.23,3.32-2.56,4.43-2.56c1.83,0,3.5,0.95,4.42,2.55l5.38,9.34c-0.24,0.22-0.46,0.44-0.67,0.65     c-0.17,0.14-0.32,0.29-0.45,0.45c-2.98,3.2-5.07,7.67-6.05,12.95c-1.29,6.9-0.67,14.92,1.78,22.58c1.1,3.46,2.51,6.67,4.16,9.62     c-0.7,1.32-1.11,2.81-1.11,4.41c0,5.11,4.15,9.26,9.27,9.26c5.12,0,9.27-4.15,9.27-9.26c0-4.83-3.69-8.79-8.4-9.23     c-1.37-2.42-2.52-5.06-3.43-7.91c-1.95-6.06-2.47-12.3-1.47-17.56c0.63-3.37,1.83-6.1,3.48-7.88c0.88-0.95,1.87-1.6,2.93-1.95     c0.93-0.29,1.9-0.36,3.02-0.21c0.58,0.08,1.18,0.23,1.86,0.49c6.11,2.15,12.01,9.7,15.04,19.24c0.82,2.57,1.37,5.14,1.67,7.66     c-1.77,1.69-2.87,4.06-2.87,6.7c0,5.11,4.15,9.26,9.27,9.26c5.12,0,9.27-4.15,9.27-9.26     C367.63,515.12,365.33,511.86,362.07,510.43z M295.32,501.51l-3.47-6.01l-6.76-11.72l-0.01,0.01l-6.81-11.82     c-3.05-5.28-8.52-8.41-14.64-8.41c-5.96,0.04-11.59,3.41-14.72,8.79l-21.71,37.62c-3.06,5.3-3.04,11.63,0.05,16.89     c2.95,5.05,8.5,8.21,14.6,8.32c1.83,2.23,4.57,3.55,7.47,3.55c5.33,0,9.67-4.34,9.67-9.67c0-5.34-4.34-9.67-9.67-9.67     c-3.13,0-6.07,1.54-7.88,4.07c-1.73-0.1-3.21-1.01-4.1-2.52c-0.92-1.61-0.93-3.53-0.01-5.12l21.94-37.99     c0.95-1.6,2.6-2.55,4.43-2.55c0.69,0,3.06,0.18,4.42,2.55l5.87,10.17l4.33,7.51l6.78,11.71l2.24,3.88l2.73,4.71     c1.32,2.31,0.44,4.35,0,5.12c-0.58,0.95-1.92,2.55-4.42,2.55h-1.09c-1.86,0-3.51-0.96-4.42-2.55c-0.94-1.64-0.94-3.51-0.01-5.11     l2.13-3.68l-6.78-11.71l-5.49,9.53c-2.84,4.9-3.02,10.85-0.49,15.91c2.84,5.66,8.97,9.32,15.61,9.32h0.54     c5.67,0,10.91-2.82,14.01-7.53c3.5-5.31,3.6-12.45,0.27-18.17L295.32,501.51z"></path>		</g>		<path class="st0" d="M362.07,510.43c-0.38-2.97-1.06-5.98-2.02-8.98c-4.01-12.67-12.18-22.54-21.3-25.76    c-1.34-0.5-2.68-0.85-3.96-1c-0.4-0.06-0.77-0.1-1.15-0.13c-0.5-0.04-1.04-0.06-1.6-0.04l-6.24-10.8    c-3.04-5.26-8.48-8.4-14.56-8.4c-6.02,0.04-11.69,3.41-14.78,8.79l-8.53,14.74l-2.84,4.93l-0.01,0.01l-6.81-11.82    c-3.05-5.28-8.52-8.41-14.64-8.41c-5.96,0.04-11.59,3.41-14.72,8.79l-21.71,37.62c-3.06,5.3-3.04,11.63,0.05,16.89    c2.95,5.05,8.5,8.21,14.6,8.32c1.83,2.23,4.57,3.55,7.47,3.55c5.33,0,9.67-4.34,9.67-9.67c0-5.34-4.34-9.67-9.67-9.67    c-3.13,0-6.07,1.54-7.88,4.07c-1.73-0.1-3.21-1.01-4.1-2.52c-0.92-1.61-0.93-3.53-0.01-5.12l21.94-37.99    c0.95-1.6,2.6-2.55,4.43-2.55c0.69,0,3.06,0.18,4.42,2.55l5.87,10.17l4.33,7.51l-2.84,4.93l-5.49,9.53    c-2.84,4.91-3.02,10.85-0.49,15.91c2.84,5.66,8.97,9.32,15.61,9.32h0.54c5.67,0,10.91-2.82,14.01-7.53    c3.5-5.31,3.6-12.45,0.27-18.17l-4.6-7.98l-3.47-6.01l2.86-4.93l12.12-20.98c1.28-2.23,3.32-2.56,4.43-2.56    c1.83,0,3.5,0.95,4.42,2.55l5.38,9.34c-0.24,0.22-0.46,0.44-0.67,0.65c-0.17,0.14-0.32,0.29-0.45,0.45    c-2.98,3.2-5.07,7.67-6.05,12.95c-1.29,6.9-0.67,14.92,1.78,22.58c1.1,3.46,2.51,6.67,4.16,9.62c-0.7,1.32-1.11,2.81-1.11,4.41    c0,5.11,4.15,9.26,9.27,9.26s9.27-4.15,9.27-9.26c0-4.83-3.69-8.79-8.4-9.23c-1.37-2.42-2.52-5.06-3.43-7.91    c-1.95-6.06-2.47-12.3-1.47-17.56c0.63-3.37,1.83-6.1,3.48-7.88c0.88-0.95,1.87-1.6,2.93-1.95c0.93-0.29,1.9-0.36,3.02-0.21    c0.58,0.08,1.18,0.23,1.86,0.49c6.11,2.15,12.01,9.7,15.04,19.24c0.82,2.57,1.37,5.14,1.67,7.66c-1.77,1.69-2.87,4.06-2.87,6.7    c0,5.11,4.15,9.26,9.27,9.26c5.12,0,9.27-4.15,9.27-9.26C367.63,515.12,365.33,511.86,362.07,510.43z M290.05,520.93    c-0.58,0.95-1.92,2.55-4.42,2.55h-1.09c-1.86,0-3.51-0.96-4.42-2.55c-0.94-1.64-0.94-3.51-0.01-5.11l2.13-3.68l2.84-4.93    l2.24,3.88l2.73,4.71C291.37,518.11,290.49,520.16,290.05,520.93z"></path>		<g>			<polygon class="st1" points="285.08,507.21 282.24,512.14 275.46,500.44 278.31,495.51    "></polygon>		</g>		<g>			<polygon class="st1" points="294.7,490.58 291.85,495.51 285.08,483.79 287.93,478.86    "></polygon>		</g>	</g>	<g>		<path class="st2" d="M433.28,526.59c-2.31,0-4.19-1.88-4.19-4.27v-28.56l-11.35,16.92c-0.8,1.16-2.1,1.88-3.47,1.88    c-1.45,0-2.75-0.72-3.54-1.88l-11.35-16.92v28.56c0,2.39-1.88,4.27-4.19,4.27s-4.19-1.88-4.19-4.27v-42.37    c0-1.81,1.23-3.47,2.97-3.98c1.81-0.58,3.69,0.15,4.7,1.66l15.62,23.14l15.55-23.14c1.01-1.52,2.89-2.24,4.7-1.66    c1.74,0.51,2.97,2.17,2.97,3.98v42.37C437.48,524.71,435.6,526.59,433.28,526.59z"></path>		<path class="st2" d="M459.32,526.95c-5.35,0-10.19-2.31-13.74-6.22c-3.4-3.61-5.21-8.6-5.21-13.88c0-11.42,8.03-19.96,18.58-19.96    c10.63,0,18.37,8.39,18.37,19.96c0,2.31-1.88,4.19-4.26,4.19h-23.64c1.45,4.41,5.21,7.52,9.91,7.52c3.69,0,6.65-1.01,8.32-4.05    c1.23-2.02,3.83-2.6,5.78-1.45c2.02,1.23,2.6,3.83,1.45,5.78C471.61,524.71,465.97,526.95,459.32,526.95z M449.34,502.59h19.02    c-1.45-4.99-5.42-7.3-9.4-7.3C455.05,495.28,450.86,497.6,449.34,502.59z"></path>		<path class="st2" d="M517.38,480.03v42.37c0,2.31-1.88,4.19-4.19,4.19c-2.02,0-3.69-1.37-4.12-3.25    c-3.04,2.1-6.73,3.25-10.63,3.25c-5.35,0-10.19-2.1-13.74-6c-3.4-3.62-5.21-8.6-5.21-13.88c0-5.35,1.81-10.34,5.21-13.96    c3.54-3.9,8.39-6,13.74-6c3.83,0,7.45,1.08,10.56,3.18v-9.91c0-2.31,1.88-4.19,4.19-4.19    C515.5,475.83,517.38,477.71,517.38,480.03z M508.99,506.71c0-6.73-4.48-11.57-10.56-11.57c-6.15,0-10.56,4.84-10.56,11.57    c0,6.65,4.41,11.5,10.56,11.5C504.51,518.21,508.99,513.36,508.99,506.71z"></path>		<path class="st2" d="M539.22,526.95c-5.35,0-10.19-2.31-13.74-6.22c-3.4-3.61-5.21-8.6-5.21-13.88c0-11.42,8.03-19.96,18.58-19.96    c10.63,0,18.37,8.39,18.37,19.96c0,2.31-1.88,4.19-4.27,4.19h-23.64c1.45,4.41,5.21,7.52,9.91,7.52c3.69,0,6.65-1.01,8.32-4.05    c1.23-2.02,3.83-2.6,5.78-1.45c2.02,1.23,2.6,3.83,1.45,5.78C551.51,524.71,545.87,526.95,539.22,526.95z M529.24,502.59h19.02    c-1.45-4.99-5.42-7.3-9.4-7.3C534.95,495.28,530.76,497.6,529.24,502.59z"></path>		<path class="st2" d="M614.49,504.03v18.37c0,2.31-1.88,4.19-4.27,4.19c-2.31,0-4.19-1.88-4.19-4.19v-18.37    c0-5.28-2.68-8.89-6.8-8.89c-5.35,0-7.74,4.63-7.74,8.89v0.29c0,0.07,0,0.22,0,0.29v17.79c0,2.31-1.88,4.19-4.19,4.19    c-2.39,0-4.27-1.88-4.27-4.19v-18.37c0-5.28-2.68-8.89-6.8-8.89c-5.35,0-7.74,4.63-7.74,8.89v0.29c0,0.07,0,0.22,0,0.29v17.79    c0,2.31-1.88,4.19-4.19,4.19s-4.19-1.88-4.19-4.19v-31.45c0-2.31,1.88-4.19,4.19-4.19c1.59,0,3.04,0.94,3.69,2.24    c2.39-1.45,5.21-2.24,8.24-2.24c4.56,0,8.53,1.95,11.21,5.21c2.89-3.25,7.09-5.21,11.79-5.21    C608.06,486.75,614.49,494.05,614.49,504.03z"></path>		<path class="st2" d="M655.27,506.64c0,5.35-1.81,10.27-5.21,13.96c-3.54,3.83-8.39,6-13.74,6c-3.83,0-7.45-1.16-10.48-3.18v17.06    c0,2.31-1.95,4.19-4.27,4.19s-4.19-1.88-4.19-4.19v-49.53c0-2.31,1.88-4.19,4.19-4.19c1.95,0,3.69,1.37,4.12,3.25    c3.11-2.1,6.8-3.25,10.63-3.25c5.35,0,10.2,2.1,13.74,5.93C653.47,496.37,655.27,501.36,655.27,506.64z M646.89,506.64    c0-6.65-4.41-11.5-10.56-11.5c-6.07,0-10.48,4.84-10.48,11.5c0,6.65,4.41,11.5,10.48,11.5    C642.48,518.13,646.89,513.29,646.89,506.64z"></path>		<path class="st2" d="M678.92,491.81c0,2.31-1.88,4.19-4.26,4.19c-4.63,0-8.1,3.76-8.1,8.89v17.5c0,2.31-1.88,4.19-4.19,4.19    s-4.19-1.88-4.19-4.19v-31.45c0-2.31,1.88-4.19,4.19-4.19c1.95,0,3.54,1.3,4.05,3.11c2.46-1.45,5.28-2.24,8.24-2.24    C677.04,487.62,678.92,489.5,678.92,491.81z"></path>		<path class="st2" d="M714.86,490.94v31.45c0,2.31-1.88,4.19-4.27,4.19c-1.66,0-3.11-1.01-3.83-2.46c-2.53,1.59-5.5,2.46-8.75,2.46    c-9.26,0-16.2-7.45-16.2-17.28v-18.37c0-2.31,1.88-4.19,4.19-4.19s4.19,1.88,4.19,4.19v18.37c0,4.27,2.46,8.89,7.81,8.89    c4.77,0,8.39-3.83,8.39-8.89v-18.37c0-2.31,1.88-4.19,4.19-4.19C712.98,486.75,714.86,488.63,714.86,490.94z"></path>		<path class="st2" d="M751.37,504.03v18.37c0,2.31-1.88,4.19-4.27,4.19c-2.31,0-4.19-1.88-4.19-4.19v-18.37    c0-4.26-2.39-8.89-7.74-8.89c-4.85,0-8.46,3.83-8.46,8.89v0.29c0,0.07,0,0.14,0,0.29v17.79c0,2.31-1.88,4.19-4.19,4.19    s-4.19-1.88-4.19-4.19v-17.86v-0.51v-13.09c0-2.31,1.88-4.19,4.19-4.19c1.74,0,3.18,1.01,3.83,2.46c2.53-1.59,5.57-2.46,8.82-2.46    C744.36,486.75,751.37,494.2,751.37,504.03z"></path>		<path class="st2" d="M774.08,522.91c-2.02,2.31-4.99,3.69-8.1,3.69c-5.86,0-10.63-4.77-10.63-10.63v-20.82    c-2.17-0.07-3.98-1.95-3.98-4.19c0-2.24,1.81-4.12,3.98-4.19v-4.63c0-2.31,1.88-4.19,4.27-4.19c2.31,0,4.19,1.88,4.19,4.19v4.63    h5.35c2.31,0,4.19,1.88,4.19,4.19s-1.88,4.19-4.19,4.19h-5.35v20.82c0,1.23,0.94,2.24,2.17,2.24c0.87,0,1.45-0.51,1.66-0.8    c1.52-1.74,4.19-1.95,5.93-0.43C775.38,518.42,775.6,521.1,774.08,522.91z"></path>	</g></g></svg>